<svg width="20" height="20" viewBox="0 0 20 20" fill="none" xmlns="http://www.w3.org/2000/svg">
<path d="M10 19.499H9.99935C8.46279 19.5011 6.94886 19.1288 5.58848 18.4144L5.41722 18.3244L5.23002 18.3732L0.940023 19.4902L0.939987 19.4902C0.880966 19.5055 0.81895 19.5052 0.760086 19.4892C0.701223 19.4733 0.647557 19.4422 0.604407 19.3991C0.561256 19.356 0.530122 19.3023 0.514087 19.2435C0.498056 19.1847 0.497673 19.1227 0.512977 19.0636C0.512981 19.0636 0.512985 19.0636 0.512989 19.0636L1.6289 14.7749L1.67765 14.5876L1.58752 14.4163C0.871188 13.0544 0.497892 11.5384 0.500009 9.99971V9.99902C0.500009 4.75217 4.75315 0.499023 10 0.499023C15.2469 0.499023 19.5 4.75217 19.5 9.99902C19.5 15.2459 15.2469 19.499 10 19.499ZM11.2866 10.5002L11.2693 10.499H11.252H6.75001H6.73287L6.71578 10.5002L6.61378 10.5072L6.59676 10.5084L6.57986 10.5107C6.28067 10.5519 6.0065 10.6999 5.80804 10.9276C5.60958 11.1552 5.50024 11.447 5.50024 11.749C5.50024 12.051 5.60958 12.3428 5.80804 12.5705C6.0065 12.7981 6.28067 12.9462 6.57986 12.9874L6.59676 12.9897L6.61378 12.9909L6.71578 12.9979L6.73287 12.999H6.75001H11.252H11.2693L11.2866 12.9978L11.3876 12.9908L11.4044 12.9897L11.4212 12.9874C11.7203 12.9462 11.9945 12.7981 12.193 12.5705C12.3914 12.3428 12.5008 12.051 12.5008 11.749C12.5008 11.447 12.3914 11.1552 12.193 10.9276C11.9945 10.6999 11.7203 10.5519 11.4212 10.5107L11.4044 10.5084L11.3876 10.5072L11.2866 10.5002ZM13.2842 7.0002L13.2671 6.99902H13.25H6.75001H6.73287L6.71578 7.0002L6.61378 7.0072L6.59676 7.00836L6.57986 7.01069C6.28067 7.05186 6.0065 7.19995 5.80804 7.42759C5.60958 7.65522 5.50024 7.94702 5.50024 8.24902C5.50024 8.55103 5.60958 8.84282 5.80804 9.07046C6.0065 9.2981 6.28067 9.44619 6.57986 9.48736L6.59676 9.48968L6.61378 9.49085L6.71578 9.49785L6.73287 9.49902H6.75001H13.25H13.2671L13.2842 9.49785L13.3862 9.49085L13.4033 9.48968L13.4202 9.48736C13.7194 9.44619 13.9935 9.2981 14.192 9.07046C14.3904 8.84282 14.4998 8.55103 14.4998 8.24902C14.4998 7.94702 14.3904 7.65522 14.192 7.42759C13.9935 7.19995 13.7194 7.05186 13.4202 7.01069L13.4033 7.00836L13.3862 7.0072L13.2842 7.0002Z" stroke="#9DB2CE"/>
</svg>
