<svg width="28" height="25" viewBox="0 0 28 25" fill="none" xmlns="http://www.w3.org/2000/svg">
<path d="M2.15796 5.77299L1.78564 5.18022L0.841885 5.77299L1.78564 6.36577L2.15796 5.77299ZM9.76712 9.72568L2.53028 5.18022L1.78564 6.36577L9.02248 10.9112L9.76712 9.72568ZM2.53028 6.36577L9.76712 1.82031L9.02248 0.634767L1.78564 5.18022L2.53028 6.36577ZM2.16014 6.47302H25.8421V5.07302H2.16014V6.47302Z" fill="#008847"/>
<path d="M25.8442 19.4096L26.2166 20.0024L27.1603 19.4096L26.2166 18.8169L25.8442 19.4096ZM18.2351 15.4569L25.4719 20.0024L26.2166 18.8169L18.9797 14.2714L18.2351 15.4569ZM25.4719 18.8169L18.2351 23.3623L18.9797 24.5478L26.2166 20.0024L25.4719 18.8169ZM25.8421 18.7096L2.15789 18.7096V20.1096L25.8421 20.1096V18.7096Z" fill="#008847"/>
</svg>
