<svg width="22" height="22" viewBox="0 0 22 22" fill="none" xmlns="http://www.w3.org/2000/svg">
<path d="M18.1429 19.5714C18.1429 19.9503 18.2934 20.3137 18.5613 20.5816C18.8292 20.8495 19.1925 21 19.5714 21C19.9503 21 20.3137 20.8495 20.5816 20.5816C20.8495 20.3137 21 19.9503 21 19.5714C21 19.1925 20.8495 18.8292 20.5816 18.5613C20.3137 18.2934 19.9503 18.1429 19.5714 18.1429C19.1925 18.1429 18.8292 18.2934 18.5613 18.5613C18.2934 18.8292 18.1429 19.1925 18.1429 19.5714ZM9.57143 19.5714C9.57143 19.9503 9.72194 20.3137 9.98985 20.5816C10.2578 20.8495 10.6211 21 11 21C11.3789 21 11.7422 20.8495 12.0102 20.5816C12.2781 20.3137 12.4286 19.9503 12.4286 19.5714C12.4286 19.1925 12.2781 18.8292 12.0102 18.5613C11.7422 18.2934 11.3789 18.1429 11 18.1429C10.6211 18.1429 10.2578 18.2934 9.98985 18.5613C9.72194 18.8292 9.57143 19.1925 9.57143 19.5714ZM1 19.5714C1 19.9503 1.15051 20.3137 1.41842 20.5816C1.68633 20.8495 2.04969 21 2.42857 21C2.80745 21 3.17081 20.8495 3.43872 20.5816C3.70663 20.3137 3.85714 19.9503 3.85714 19.5714C3.85714 19.1925 3.70663 18.8292 3.43872 18.5613C3.17081 18.2934 2.80745 18.1429 2.42857 18.1429C2.04969 18.1429 1.68633 18.2934 1.41842 18.5613C1.15051 18.8292 1 19.1925 1 19.5714ZM18.1429 11C18.1429 11.3789 18.2934 11.7422 18.5613 12.0102C18.8292 12.2781 19.1925 12.4286 19.5714 12.4286C19.9503 12.4286 20.3137 12.2781 20.5816 12.0102C20.8495 11.7422 21 11.3789 21 11C21 10.6211 20.8495 10.2578 20.5816 9.98985C20.3137 9.72194 19.9503 9.57143 19.5714 9.57143C19.1925 9.57143 18.8292 9.72194 18.5613 9.98985C18.2934 10.2578 18.1429 10.6211 18.1429 11ZM9.57143 11C9.57143 11.3789 9.72194 11.7422 9.98985 12.0102C10.2578 12.2781 10.6211 12.4286 11 12.4286C11.3789 12.4286 11.7422 12.2781 12.0102 12.0102C12.2781 11.7422 12.4286 11.3789 12.4286 11C12.4286 10.6211 12.2781 10.2578 12.0102 9.98985C11.7422 9.72194 11.3789 9.57143 11 9.57143C10.6211 9.57143 10.2578 9.72194 9.98985 9.98985C9.72194 10.2578 9.57143 10.6211 9.57143 11ZM1 11C1 11.3789 1.15051 11.7422 1.41842 12.0102C1.68633 12.2781 2.04969 12.4286 2.42857 12.4286C2.80745 12.4286 3.17081 12.2781 3.43872 12.0102C3.70663 11.7422 3.85714 11.3789 3.85714 11C3.85714 10.6211 3.70663 10.2578 3.43872 9.98985C3.17081 9.72194 2.80745 9.57143 2.42857 9.57143C2.04969 9.57143 1.68633 9.72194 1.41842 9.98985C1.15051 10.2578 1 10.6211 1 11ZM18.1429 2.42857C18.1429 2.80745 18.2934 3.17081 18.5613 3.43872C18.8292 3.70663 19.1925 3.85714 19.5714 3.85714C19.9503 3.85714 20.3137 3.70663 20.5816 3.43872C20.8495 3.17081 21 2.80745 21 2.42857C21 2.04969 20.8495 1.68633 20.5816 1.41842C20.3137 1.15051 19.9503 1 19.5714 1C19.1925 1 18.8292 1.15051 18.5613 1.41842C18.2934 1.68633 18.1429 2.04969 18.1429 2.42857ZM9.57143 2.42857C9.57143 2.80745 9.72194 3.17081 9.98985 3.43872C10.2578 3.70663 10.6211 3.85714 11 3.85714C11.3789 3.85714 11.7422 3.70663 12.0102 3.43872C12.2781 3.17081 12.4286 2.80745 12.4286 2.42857C12.4286 2.04969 12.2781 1.68633 12.0102 1.41842C11.7422 1.15051 11.3789 1 11 1C10.6211 1 10.2578 1.15051 9.98985 1.41842C9.72194 1.68633 9.57143 2.04969 9.57143 2.42857ZM1 2.42857C1 2.80745 1.15051 3.17081 1.41842 3.43872C1.68633 3.70663 2.04969 3.85714 2.42857 3.85714C2.80745 3.85714 3.17081 3.70663 3.43872 3.43872C3.70663 3.17081 3.85714 2.80745 3.85714 2.42857C3.85714 2.04969 3.70663 1.68633 3.43872 1.41842C3.17081 1.15051 2.80745 1 2.42857 1C2.04969 1 1.68633 1.15051 1.41842 1.41842C1.15051 1.68633 1 2.04969 1 2.42857Z" stroke="#9DB2CE" stroke-width="2" stroke-linecap="round" stroke-linejoin="round"/>
</svg>
