<svg width="22" height="20" viewBox="0 0 22 20" fill="none" xmlns="http://www.w3.org/2000/svg">
<path d="M1.26206 4.92156C1.75009 4.43411 2.41213 4.16016 3.10256 4.16016H18.8974C19.5879 4.16016 20.2499 4.43411 20.7379 4.92156C21.2259 5.40898 21.5 6.06995 21.5 6.75902V16.9008C21.5 17.5898 21.2259 18.2508 20.7379 18.7382C20.2499 19.2257 19.5879 19.4996 18.8974 19.4996H3.10256C2.41213 19.4996 1.75009 19.2257 1.26206 18.7382C0.774053 18.2508 0.5 17.5898 0.5 16.9008V6.75902C0.5 6.06995 0.774053 5.40898 1.26206 4.92156ZM16.0769 9.92131C15.5705 9.92131 15.0847 10.1222 14.7264 10.4801C14.3681 10.838 14.1667 11.3235 14.1667 11.8299C14.1667 12.3363 14.3681 12.8218 14.7264 13.1797C15.0847 13.5375 15.5705 13.7385 16.0769 13.7385C16.5834 13.7385 17.0692 13.5375 17.4275 13.1797C17.7858 12.8218 17.9872 12.3363 17.9872 11.8299C17.9872 11.3235 17.7858 10.838 17.4275 10.4801C17.0692 10.1222 16.5834 9.92131 16.0769 9.92131Z" stroke="#9DB2CE"/>
<path d="M16.1847 0.560184L16.1847 0.560199L16.1886 0.559177C16.4487 0.489947 16.7212 0.481333 16.9852 0.534004C17.2492 0.586675 17.4974 0.699212 17.7109 0.862889C17.9243 1.02656 18.0972 1.23699 18.2162 1.4779C18.2599 1.56635 18.2959 1.65804 18.324 1.75196H11.5596L16.1847 0.560184Z" stroke="#9DB2CE"/>
</svg>
