<svg width="24" height="24" viewBox="0 0 24 24" fill="none" xmlns="http://www.w3.org/2000/svg">
<path d="M7.49249 12.8C7.49249 11.527 7.9666 10.3061 8.81051 9.40589C9.65443 8.50571 10.799 8 11.9925 8C13.186 8 14.3306 8.50571 15.1745 9.40589C16.0184 10.3061 16.4925 11.527 16.4925 12.8C16.4925 14.073 16.0184 15.2939 15.1745 16.1941C14.3306 17.0943 13.186 17.6 11.9925 17.6C10.799 17.6 9.65443 17.0943 8.81051 16.1941C7.9666 15.2939 7.49249 14.073 7.49249 12.8Z" fill="#A7ACB0"/>
<path d="M7.1685 1.3216C7.35584 0.924295 7.64299 0.590328 7.99792 0.356963C8.35284 0.123598 8.76157 1.37179e-05 9.1785 0H14.8245C15.2426 1.5064e-05 15.6524 0.124276 16.0079 0.358845C16.3635 0.593414 16.6508 0.929013 16.8375 1.328L17.715 3.2H20.25C21.2446 3.2 22.1984 3.62143 22.9017 4.37157C23.6049 5.12172 24 6.13913 24 7.2V20C24 21.0609 23.6049 22.0783 22.9017 22.8284C22.1984 23.5786 21.2446 24 20.25 24H3.75C2.75544 24 1.80161 23.5786 1.09835 22.8284C0.395088 22.0783 0 21.0609 0 20V7.2C0 6.13913 0.395088 5.12172 1.09835 4.37157C1.80161 3.62143 2.75544 3.2 3.75 3.2H6.285L7.1685 1.3216ZM11.9925 6.4C10.4012 6.4 8.87508 7.07428 7.74986 8.27452C6.62464 9.47475 5.9925 11.1026 5.9925 12.8C5.9925 14.4974 6.62464 16.1253 7.74986 17.3255C8.87508 18.5257 10.4012 19.2 11.9925 19.2C13.5838 19.2 15.1099 18.5257 16.2351 17.3255C17.3604 16.1253 17.9925 14.4974 17.9925 12.8C17.9925 11.1026 17.3604 9.47475 16.2351 8.27452C15.1099 7.07428 13.5838 6.4 11.9925 6.4Z" fill="#A7ACB0"/>
</svg>
