<svg width="16" height="20" viewBox="0 0 16 20" fill="none" xmlns="http://www.w3.org/2000/svg">
<path d="M3.4397 4.75003C3.4397 2.43549 5.45473 0.5 8.00007 0.5C10.5451 0.5 12.5599 2.43497 12.5604 4.74909C12.5504 7.02087 10.654 8.90424 8.17273 8.99005H8.17269H8.17266H8.17263H8.17259H8.17256H8.17253H8.17249H8.17246H8.17243H8.17239H8.17236H8.17233H8.1723H8.17226H8.17223H8.1722H8.17216H8.17213H8.1721H8.17207H8.17204H8.172H8.17197H8.17194H8.17191H8.17187H8.17184H8.17181H8.17178H8.17175H8.17171H8.17168H8.17165H8.17162H8.17159H8.17156H8.17152H8.17149H8.17146H8.17143H8.1714H8.17137H8.17133H8.1713H8.17127H8.17124H8.17121H8.17118H8.17114H8.17111H8.17108H8.17105H8.17102H8.17099H8.17096H8.17093H8.17089H8.17086H8.17083H8.1708H8.17077H8.17074H8.17071H8.17068H8.17064H8.17061H8.17058H8.17055H8.17052H8.17049H8.17046H8.17043H8.17039H8.17036H8.17033H8.1703H8.17027H8.17024H8.17021H8.17018H8.17014H8.17011H8.17008H8.17005H8.17002H8.16999H8.16996H8.16993H8.16989H8.16986H8.16983H8.1698H8.16977H8.16974H8.16971H8.16967H8.16964H8.16961H8.16958H8.16955H8.16952H8.16948H8.16945H8.16942H8.16939H8.16936H8.16932H8.16929H8.16926H8.16923H8.1692H8.16916H8.16913H8.1691H8.16907H8.16904H8.169H8.16897H8.16894H8.16891H8.16887H8.16884H8.16881H8.16878H8.16874H8.16871H8.16868H8.16865H8.16861H8.16858H8.16855H8.16851H8.16848H8.16845H8.16841H8.16838H8.16835H8.16831H8.16828H8.16825H8.16821H8.16818H8.16815H8.16811H8.16808H8.16804H8.16801H8.16798H8.16794H8.16791H8.16787H8.16784H8.1678H8.16777H8.16773H8.1677H8.16766H8.16763H8.16759H8.16756H8.16752H8.16749H8.16745H8.16742H8.16738H8.16735H8.16731H8.16728H8.16724H8.1672H8.16717H8.16713H8.16709H8.16706H8.16702H8.16699H8.16695H8.16691H8.16687H8.16684H8.1668H8.16676H8.16673H8.16669H8.16665H8.16661H8.16658H8.16654H8.1665H8.16646H8.16642H8.16639H8.16635H8.16631H8.16627H8.16623H8.16619H8.16615H8.16611H8.16607H8.16603H8.16599H8.16596H8.16592H8.16588H8.16584H8.16579H8.16575H8.16571H8.16567H8.16563H8.16559H8.16555H8.16551H8.16547H8.16543H8.16539H8.16534H8.1653H8.16526H8.16522H8.16518H8.16513H8.16509H8.16505H8.165H8.16496H8.16492H8.16488H8.16483H8.16479H8.16474H8.1647H8.16466H8.16461H8.16457H8.16452H8.16448H8.16443H8.16439H8.16434H8.1643H8.16425H8.16421H8.16416H8.16411H8.16407H8.16402H8.16398H8.16393H8.16388H8.16383H8.16379H8.16374H8.16369H8.16364H8.1636H8.16355H8.1635H8.16345H8.1634H8.16335H8.16331H8.16326H8.16321H8.16316H8.16311H8.16306H8.16301H8.16296H8.16291H8.16286H8.1628H8.16275H8.1627H8.16265H8.1626H8.16255H8.16249H8.16244H8.16239H8.16234H8.16228H8.16223H8.16218H8.16212H8.16207H8.16202H8.16196H8.16191H8.16185H8.1618H8.16174H8.16169H8.16163H8.16158H8.16152H8.16147H8.16141H8.16135H8.1613H8.16124H8.16118H8.16112H8.16107H8.16101H8.16095H8.16089H8.16083H8.16078H8.16072H8.16066H8.1606H8.16054H8.16048H8.16042H8.16036H8.1603H8.16024H8.16017H8.16011H8.16005H8.15999H8.15993H8.15987H8.15974H8.15962H8.15949H8.15937H8.15924H8.15912H8.159H8.15887H8.15875H8.15863H8.15851H8.15838H8.15826H8.15814H8.15802H8.1579H8.15778H8.15766H8.15754H8.15742H8.1573H8.15718H8.15706H8.15694H8.15682H8.1567H8.15658H8.15646H8.15634H8.15623H8.15611H8.15599H8.15587H8.15576H8.15564H8.15552H8.15541H8.15529H8.15517H8.15506H8.15494H8.15483H8.15471H8.1546H8.15448H8.15437H8.15425H8.15414H8.15402H8.15391H8.15379H8.15368H8.15357H8.15345H8.15334H8.15323H8.15312H8.153H8.15289H8.15278H8.15267H8.15256H8.15244H8.15233H8.15222H8.15211H8.152H8.15189H8.15178H8.15167H8.15156H8.15145H8.15134H8.15123H8.15112H8.15101H8.1509H8.15079H8.15069H8.15058H8.15047H8.15036H8.15025H8.15015H8.15004H8.14993H8.14982H8.14972H8.14961H8.1495H8.14939H8.14929H8.14918H8.14908H8.14897H8.14886H8.14876H8.14865H8.14855H8.14844H8.14834H8.14823H8.14813H8.14802H8.14792H8.14781H8.14771H8.1476H8.1475H8.1474H8.14729H8.14719H8.14709H8.14698H8.14688H8.14678H8.14667H8.14657H8.14647H8.14637H8.14626H8.14616H8.14606H8.14596H8.14586H8.14575H8.14565H8.14555H8.14545H8.14535H8.14525H8.14515H8.14504H8.14494H8.14484H8.14474H8.14464H8.14454H8.14444H8.14434H8.14424H8.14414H8.14404H8.14394H8.14384H8.14374H8.14364H8.14355H8.14345H8.14335H8.14325H8.14315H8.14305H8.14295H8.14285H8.14276H8.14266H8.14256H8.14246H8.14236H8.14226H8.14217H8.14207H8.14197H8.14187H8.14178H8.14168H8.14158H8.14148H8.14139H8.14129H8.14119H8.1411H8.141H8.1409H8.1408H8.14071H8.14061H8.14051H8.14042H8.14032H8.14023H8.14013H8.14003H8.13994H8.13984H8.13975H8.13965H8.13955H8.13946H8.13936H8.13927H8.13917H8.13908H8.13898H8.13889H8.13888C8.0452 8.9796 7.94655 8.98081 7.85532 8.98915C5.31811 8.89166 3.4397 7.00905 3.4397 4.75003Z" stroke="#9DB2CE"/>
<path d="M2.85466 18.1669L2.85331 18.1661C1.60785 17.3867 1 16.3866 1 15.3799C1 14.3728 1.60829 13.363 2.86365 12.5739C4.2639 11.7043 6.12689 11.2549 8.01332 11.2549C9.90038 11.2549 11.7577 11.7046 13.1467 12.5737C14.3881 13.3506 14.9904 14.3503 15 15.362C14.9992 16.3786 14.3907 17.3782 13.1449 18.1672C11.7508 19.0457 9.88873 19.4999 8 19.4999C6.11108 19.4999 4.24884 19.0456 2.85466 18.1669ZM9.29901 17.3799V16.6299H10.1307C10.8133 16.6299 11.4297 16.0954 11.4297 15.3799C11.4297 14.6644 10.8133 14.1299 10.1307 14.1299H9.29901V13.3799C9.29901 12.6644 8.68265 12.1299 8 12.1299C7.31735 12.1299 6.70099 12.6644 6.70099 13.3799V14.1299H5.86932C5.18667 14.1299 4.57031 14.6644 4.57031 15.3799C4.57031 16.0954 5.18667 16.6299 5.86932 16.6299H6.70099V17.3799C6.70099 18.0954 7.31735 18.6299 8 18.6299C8.68265 18.6299 9.29901 18.0954 9.29901 17.3799Z" stroke="#9DB2CE"/>
</svg>
