<svg width="26" height="26" viewBox="0 0 26 26" fill="none" xmlns="http://www.w3.org/2000/svg">
<path d="M18.2499 11.5C19.4925 11.5 20.4999 10.4926 20.4999 9.25C20.4999 8.00736 19.4925 7 18.2499 7C17.0072 7 15.9999 8.00736 15.9999 9.25C15.9999 10.4926 17.0072 11.5 18.2499 11.5Z" fill="#8D9295"/>
<path d="M7.75 11.5C8.99264 11.5 10 10.4926 10 9.25C10 8.00736 8.99264 7 7.75 7C6.50736 7 5.5 8.00736 5.5 9.25C5.5 10.4926 6.50736 11.5 7.75 11.5Z" fill="#8D9295"/>
<path d="M0.5 13C0.5 19.9061 6.09386 25.5 13 25.5C19.9061 25.5 25.5 19.9061 25.5 13C25.5 6.09386 19.9061 0.5 13 0.5C6.09386 0.5 0.5 6.09386 0.5 13Z" stroke="#8D9295"/>
<path d="M19.78 16.5C18.5382 19.4938 15.9468 21.5 13 21.5C10.0532 21.5 7.46181 19.4938 6.22003 16.5H19.78Z" stroke="#8D9295"/>
</svg>
