<svg width="33" height="33" viewBox="0 0 33 33" fill="none" xmlns="http://www.w3.org/2000/svg">
<path fill-rule="evenodd" clip-rule="evenodd" d="M16.0492 7.11804C9.38708 7.11804 3.69766 11.2619 1.39258 17.1112C3.69766 22.9605 9.38708 27.1043 16.0492 27.1043C22.7113 27.1043 28.4007 22.9605 30.7058 17.1112C28.4007 11.2619 22.7113 7.11804 16.0492 7.11804ZM16.0494 23.7733C12.3719 23.7733 9.38733 20.7887 9.38733 17.1112C9.38733 13.4337 12.3719 10.4491 16.0494 10.4491C19.7269 10.4491 22.7115 13.4337 22.7115 17.1112C22.7115 20.7887 19.7269 23.7733 16.0494 23.7733ZM16.0494 13.114C13.8376 13.114 12.0522 14.8994 12.0522 17.1112C12.0522 19.323 13.8376 21.1085 16.0494 21.1085C18.2612 21.1085 20.0467 19.323 20.0467 17.1112C20.0467 14.8994 18.2612 13.114 16.0494 13.114Z" fill="white" fill-opacity="0.8"/>
<path d="M3.3916 25.1057L29.3737 9.1167" stroke="white" stroke-opacity="0.8" stroke-width="2.66484" stroke-linecap="round"/>
</svg>
