<svg width="14" height="20" viewBox="0 0 14 20" fill="none" xmlns="http://www.w3.org/2000/svg">
<path d="M6.98486 12C8.31094 12 9.58271 11.4732 10.5204 10.5355C11.4581 9.59786 11.9849 8.32609 11.9849 7.00001C11.9849 5.67393 11.4581 4.40216 10.5204 3.46447C9.58271 2.52679 8.31094 2.00001 6.98486 2.00001C5.65878 2.00001 4.38701 2.52679 3.44933 3.46447C2.51165 4.40216 1.98486 5.67393 1.98486 7.00001C1.98486 8.32609 2.51165 9.59786 3.44933 10.5355C4.38701 11.4732 5.65878 12 6.98486 12ZM7.98486 16H8.98486C9.25008 16 9.50443 16.1054 9.69197 16.2929C9.87951 16.4804 9.98486 16.7348 9.98486 17C9.98486 17.2652 9.87951 17.5196 9.69197 17.7071C9.50443 17.8947 9.25008 18 8.98486 18H7.98486V19C7.98486 19.2652 7.8795 19.5196 7.69197 19.7071C7.50443 19.8947 7.25008 20 6.98486 20C6.71965 20 6.46529 19.8947 6.27776 19.7071C6.09022 19.5196 5.98486 19.2652 5.98486 19V18H4.98486C4.71965 18 4.46529 17.8947 4.27776 17.7071C4.09022 17.5196 3.98486 17.2652 3.98486 17C3.98486 16.7348 4.09022 16.4804 4.27776 16.2929C4.46529 16.1054 4.71965 16 4.98486 16H5.98486V14C5.98486 13.976 5.98486 13.953 5.98686 13.93C4.23807 13.6738 2.65088 12.7656 1.54379 11.3878C0.436692 10.0101 -0.108392 8.26457 0.0179129 6.50162C0.144218 4.73867 0.932565 3.08871 2.22476 1.88282C3.51696 0.676928 5.2174 0.00433701 6.98486 8.01206e-06C8.75661 -0.00267104 10.4635 0.6666 11.7612 1.87284C13.0589 3.07909 13.8509 4.73255 13.9776 6.49977C14.1042 8.267 13.5559 10.0165 12.4434 11.3954C11.3309 12.7743 9.7369 13.6801 7.98286 13.93L7.98486 14V16Z" fill="#474747"/>
</svg>
