<svg width="26" height="24" viewBox="0 0 26 24" fill="none" xmlns="http://www.w3.org/2000/svg">
<path d="M4.3096 0C3.2033 0 2.22085 0.419304 1.36223 1.25791C0.454076 2.1449 0 3.22138 0 4.48735C0 5.75333 0.454076 6.82981 1.36223 7.7168L15.6037 22.4731C16.3302 23.1988 17.1682 23.6665 18.1176 23.8761C19.0671 24.0858 20.0289 24.0293 21.0031 23.7068C21.9773 23.3842 22.8772 22.8279 23.7028 22.0376C23.967 21.7635 24.2105 21.4611 24.4334 21.1305C24.6563 20.7999 24.838 20.4531 24.9783 20.0903C25.1187 19.7274 25.226 19.3444 25.3003 18.9412C25.3746 18.5381 25.4118 18.1349 25.4118 17.7317C25.3787 16.0222 24.7843 14.595 23.6285 13.45L12.8545 2.27391C12.7059 2.11264 12.5243 2.02798 12.3096 2.01991C12.0949 2.01185 11.9092 2.08039 11.7523 2.22553C11.5955 2.37068 11.5129 2.55211 11.5046 2.76982C11.4964 2.98754 11.5666 3.17703 11.7152 3.3383L22.4892 14.5144C23.3643 15.3852 23.8101 16.4657 23.8266 17.7559C23.8431 19.0461 23.4221 20.1024 22.5635 20.9249C22.0351 21.4571 21.4489 21.8602 20.805 22.1344C20.161 22.4086 19.4675 22.4973 18.7245 22.4005C17.9814 22.3037 17.321 21.9731 16.743 21.4087L2.50155 6.65241C1.89061 6.05571 1.58514 5.33806 1.58514 4.49945C1.58514 3.66084 1.89061 2.94319 2.50155 2.34649C2.78225 2.07233 3.08772 1.86671 3.41796 1.72963C3.74819 1.59255 4.09494 1.54013 4.4582 1.57239C5.18473 1.60464 5.86171 1.93525 6.48916 2.5642L17.8081 14.3208C17.8906 14.4015 17.969 14.4861 18.0433 14.5748C18.1176 14.6635 18.1961 14.7684 18.2786 14.8893C18.3612 15.0103 18.4272 15.1393 18.4768 15.2764C18.5263 15.4134 18.5593 15.5505 18.5759 15.6876C18.5924 15.8247 18.5676 15.9658 18.5015 16.1109C18.4355 16.2561 18.3364 16.3932 18.2043 16.5222C17.8906 16.8447 17.5851 16.9899 17.2879 16.9576C16.9742 16.9254 16.6192 16.7238 16.2229 16.3528L7.70279 7.49908C7.60372 7.40232 7.48813 7.33378 7.35604 7.29346C7.22394 7.25315 7.08772 7.24911 6.94737 7.28137C6.80702 7.31362 6.68731 7.37813 6.58824 7.47489C6.42312 7.62004 6.34056 7.79743 6.34056 8.00709C6.34056 8.21674 6.41486 8.4022 6.56347 8.56347L15.0836 17.4414C15.7606 18.0865 16.4458 18.4413 17.1393 18.5058C17.9319 18.5703 18.6584 18.28 19.3189 17.6349C19.9463 17.0382 20.2229 16.3367 20.1486 15.5304C20.0743 14.724 19.6739 13.966 18.9474 13.2564L7.62848 1.47563C6.70382 0.572512 5.67183 0.0886974 4.53251 0.024189C4.49948 0.024189 4.46233 0.0201588 4.42105 0.0120945C4.37977 0.00403214 4.34262 0 4.3096 0Z" fill="#A7ACB0"/>
</svg>
