<svg width="31" height="20" viewBox="0 0 31 20" fill="none" xmlns="http://www.w3.org/2000/svg">
<path d="M11.3091 2.07666H19.6909V17.3416H11.3091V2.07666Z" fill="#FF5F00"/>
<path d="M11.8411 9.70914C11.8411 6.60766 13.278 3.85668 15.4865 2.07662C13.8635 0.782098 11.8146 0 9.57944 0C4.28402 0 0 4.34208 0 9.70914C0 15.0761 4.28402 19.4183 9.57932 19.4183C11.8145 19.4183 13.8633 18.6362 15.4865 17.3415C13.278 15.5885 11.8411 12.8106 11.8411 9.70914Z" fill="#EB001B"/>
<path d="M30.9997 9.70914C30.9997 15.0761 26.7157 19.4183 21.4204 19.4183C19.1852 19.4183 17.1363 18.6362 15.5132 17.3415C17.7483 15.5616 19.1587 12.8106 19.1587 9.70914C19.1587 6.60766 17.7217 3.85668 15.5132 2.07662C17.1362 0.782098 19.1852 0 21.4204 0C26.7157 0 30.9997 4.36911 30.9997 9.70914Z" fill="#F79E1B"/>
</svg>
