<svg width="20" height="20" viewBox="0 0 20 20" fill="none" xmlns="http://www.w3.org/2000/svg">
<path d="M4.02326 15.9779C4.56133 16.5235 5.20132 16.9569 5.90648 17.2532C6.61165 17.5495 7.36809 17.7029 8.1324 17.7046C8.8967 17.7063 9.65381 17.5562 10.3603 17.263C11.0667 16.9698 11.7086 16.5393 12.249 15.996C12.7895 15.4528 13.2178 14.8077 13.5096 14.0976C13.8013 13.3876 13.9506 12.6266 13.9489 11.8584C13.9472 11.0902 13.7946 10.3298 13.4998 9.62107C13.205 8.9123 12.7738 8.26904 12.231 7.72821C11.141 6.64214 9.66726 6.03429 8.1324 6.03766C6.59754 6.04104 5.1265 6.65538 4.04119 7.74624C2.95588 8.8371 2.34467 10.3157 2.34131 11.8584C2.33795 13.4011 2.94271 14.8823 4.02326 15.9779ZM12.9936 5.31198L15.9571 2.3334H14.1962C13.8883 2.3334 13.5931 2.21048 13.3754 1.99168C13.1577 1.77289 13.0354 1.47613 13.0354 1.1667C13.0354 0.857276 13.1577 0.560522 13.3754 0.341723C13.5931 0.122925 13.8883 5.28232e-06 14.1962 5.28232e-06H18.8392C18.9918 -0.000456828 19.1429 0.0294054 19.284 0.0878738C19.425 0.146342 19.5532 0.232263 19.661 0.340693C19.7689 0.449123 19.8544 0.577922 19.9126 0.719681C19.9707 0.86144 20.0005 1.01336 20 1.1667V5.8335C20 6.14292 19.8777 6.43968 19.66 6.65848C19.4423 6.87727 19.1471 7.0002 18.8392 7.0002C18.5314 7.0002 18.2361 6.87727 18.0184 6.65848C17.8008 6.43968 17.6785 6.14292 17.6785 5.8335V3.90261L14.6349 6.96169C15.8567 8.61611 16.4114 10.6735 16.1879 12.7215C15.9644 14.7696 14.9792 16.6572 13.4296 18.0061C11.8801 19.3549 9.88063 20.0654 7.83192 19.9953C5.78321 19.9251 3.83655 19.0794 2.38194 17.6276C0.92847 16.1678 0.0792518 14.2087 0.00527269 12.1447C-0.0687064 10.0808 0.638048 8.06533 1.98323 6.50414C3.32842 4.94295 5.21213 3.95199 7.25508 3.73079C9.29803 3.50959 11.3485 4.07457 12.9936 5.31198Z" fill="#474747"/>
</svg>
