<svg width="32" height="32" viewBox="0 0 32 32" fill="none" xmlns="http://www.w3.org/2000/svg">
<path d="M8.80001 16.0002C8.80001 15.788 8.71573 15.5845 8.5657 15.4345C8.41567 15.2845 8.21219 15.2002 8.00001 15.2002C7.78784 15.2002 7.58436 15.2845 7.43433 15.4345C7.2843 15.5845 7.20001 15.788 7.20001 16.0002C7.1997 18.1958 8.02019 20.3123 9.50036 21.9339C10.9805 23.5556 13.0135 24.5654 15.2 24.765V28.0002C15.2 28.2124 15.2843 28.4159 15.4343 28.5659C15.5844 28.7159 15.7878 28.8002 16 28.8002C16.2122 28.8002 16.4157 28.7159 16.5657 28.5659C16.7157 28.4159 16.8 28.2124 16.8 28.0002V24.765C18.9865 24.5654 21.0195 23.5556 22.4997 21.9339C23.9798 20.3123 24.8003 18.1958 24.8 16.0002C24.8 15.788 24.7157 15.5845 24.5657 15.4345C24.4157 15.2845 24.2122 15.2002 24 15.2002C23.7878 15.2002 23.5844 15.2845 23.4343 15.4345C23.2843 15.5845 23.2 15.788 23.2 16.0002C23.2 16.9457 23.0138 17.882 22.6519 18.7555C22.2901 19.6291 21.7598 20.4228 21.0912 21.0914C20.4226 21.7599 19.6289 22.2903 18.7553 22.6521C17.8818 23.014 16.9455 23.2002 16 23.2002C15.0545 23.2002 14.1182 23.014 13.2447 22.6521C12.3711 22.2903 11.5774 21.7599 10.9088 21.0914C10.2403 20.4228 9.70991 19.6291 9.34808 18.7555C8.98625 17.882 8.80001 16.9457 8.80001 16.0002Z" fill="white"/>
<path d="M20.8 16.0002C20.8 17.2732 20.2943 18.4941 19.3941 19.3943C18.494 20.2945 17.2731 20.8002 16 20.8002C14.727 20.8002 13.5061 20.2945 12.6059 19.3943C11.7057 18.4941 11.2 17.2732 11.2 16.0002V8.0002C11.2 6.72716 11.7057 5.50626 12.6059 4.60608C13.5061 3.70591 14.727 3.2002 16 3.2002C17.2731 3.2002 18.494 3.70591 19.3941 4.60608C20.2943 5.50626 20.8 6.72716 20.8 8.0002V16.0002Z" fill="white"/>
</svg>
