<svg width="20" height="20" viewBox="0 0 20 20" fill="none" xmlns="http://www.w3.org/2000/svg">
<path d="M6.66705 8.3314C6.66705 8.11038 6.75484 7.89842 6.91112 7.74214C7.06739 7.58586 7.27935 7.49807 7.50035 7.49807H12.5002C12.7212 7.49807 12.9332 7.58586 13.0894 7.74214C13.2457 7.89842 13.3335 8.11038 13.3335 8.3314C13.3335 8.55241 13.2457 8.76437 13.0894 8.92065C12.9332 9.07693 12.7212 9.16473 12.5002 9.16473H7.50035C7.27935 9.16473 7.06739 9.07693 6.91112 8.92065C6.75484 8.76437 6.66705 8.55241 6.66705 8.3314ZM7.50035 10.8314C7.27935 10.8314 7.06739 10.9192 6.91112 11.0755C6.75484 11.2318 6.66705 11.4437 6.66705 11.6647C6.66705 11.8857 6.75484 12.0977 6.91112 12.254C7.06739 12.4103 7.27935 12.4981 7.50035 12.4981H10.8336C11.0546 12.4981 11.2666 12.4103 11.4228 12.254C11.5791 12.0977 11.6669 11.8857 11.6669 11.6647C11.6669 11.4437 11.5791 11.2318 11.4228 11.0755C11.2666 10.9192 11.0546 10.8314 10.8336 10.8314H7.50035ZM0.000575426 9.99806C0.00100068 7.79648 0.727929 5.65656 2.0686 3.91028C3.40926 2.164 5.28872 0.908968 7.41542 0.339872C9.54213 -0.229223 11.7972 -0.0805683 13.8308 0.762775C15.8644 1.60612 17.5628 3.09701 18.6627 5.00417C19.7625 6.91133 20.2023 9.12815 19.9137 11.3107C19.6251 13.4933 18.6244 15.5197 17.0667 17.0755C15.509 18.6313 13.4815 19.6295 11.2986 19.9153C9.1157 20.2012 6.89949 19.7586 4.99376 18.6564L1.09721 19.9564C0.953251 20.0045 0.7989 20.0123 0.650814 19.9791C0.502727 19.9458 0.36653 19.8728 0.256922 19.7678C0.147313 19.6628 0.0684559 19.5299 0.0288598 19.3834C-0.0107363 19.2368 -0.0095671 19.0823 0.0322412 18.9364L1.21887 14.7847C0.417257 13.3168 -0.00172976 11.6706 0.000575426 9.99806ZM10.0003 1.66474C8.52896 1.66464 7.08384 2.05412 5.81183 2.79358C4.53981 3.53304 3.48626 4.59611 2.75825 5.87473C2.03024 7.15336 1.65373 8.60195 1.66701 10.0733C1.68028 11.5446 2.08286 12.9861 2.83383 14.2514C2.8916 14.3491 2.9288 14.4577 2.94313 14.5703C2.95746 14.6829 2.94862 14.7973 2.91716 14.9064L2.06885 17.8731L4.8321 16.9531C4.94945 16.9139 5.07406 16.9014 5.19686 16.9163C5.31966 16.9313 5.43759 16.9735 5.54208 17.0397C6.63416 17.7309 7.87204 18.1585 9.15785 18.2889C10.4437 18.4193 11.7422 18.2487 12.9508 17.7908C14.1593 17.3329 15.2448 16.6001 16.1214 15.6505C16.9981 14.7008 17.6418 13.5602 18.0017 12.3189C18.3617 11.0776 18.428 9.76957 18.1953 8.49823C17.9627 7.22689 17.4376 6.02708 16.6615 4.99364C15.8854 3.9602 14.8795 3.12146 13.7234 2.54371C12.5673 1.96596 11.2927 1.66504 10.0003 1.66474Z" fill="white"/>
</svg>
