<svg width="31" height="16" viewBox="0 0 31 16" fill="none" xmlns="http://www.w3.org/2000/svg">
<path d="M11.7699 1.0609L7.71125 11.0547H5.06341L3.06609 3.0787C2.945 2.58863 2.83977 2.40827 2.47128 2.20104C1.86896 1.86332 0.874297 1.54748 0 1.351L0.0589727 1.0609H4.32196C4.86446 1.0609 5.35295 1.43374 5.47719 2.0793L6.53252 7.86287L9.13798 1.0609H11.7699ZM15.3495 1.0609L13.2784 11.0547H10.7732L12.8445 1.0609H15.3495ZM22.1448 7.79175C22.1552 5.15463 18.612 5.00827 18.6351 3.83001C18.6436 3.47179 18.9742 3.09045 19.6978 2.99296C20.0563 2.94509 21.0466 2.90697 22.1683 3.44042L22.6071 1.31988C22.0044 1.0949 21.2288 0.878418 20.2641 0.878418C17.7877 0.878418 16.0458 2.23604 16.0318 4.1816C16.0156 5.62071 17.2761 6.42275 18.224 6.90208C19.2004 7.39154 19.5278 7.70613 19.5233 8.14359C19.5163 8.81415 18.7435 9.11099 18.025 9.12199C16.7652 9.14262 16.0349 8.77053 15.4523 8.49043L14.9976 10.6812C15.5837 10.9584 16.6638 11.1993 17.7826 11.2115C20.4152 11.2115 22.137 9.86942 22.1448 7.79175ZM28.6838 11.0547H31L28.9765 1.0609H26.8396C26.3576 1.0609 25.9526 1.34962 25.7729 1.79345L22.0141 11.0547H24.6446L25.1664 9.56182H28.3803L28.6838 11.0547ZM25.8878 7.5139L27.2067 3.76089L27.9644 7.5139H25.8877H25.8878ZM18.5556 13.8055H17.5376V14.7833H18.6762V15.0773H17.1947V12.3648H18.6178V12.6588H17.5376V13.5158H18.5554V13.8058L18.5556 13.8055ZM19.2021 12.2199H19.545V15.0772H19.2021V12.2199ZM20.4104 14.1676C20.4181 14.6467 20.7107 14.8438 21.0575 14.8438C21.3033 14.8438 21.4553 14.7996 21.5802 14.7433L21.6425 14.9969C21.5216 15.0532 21.3112 15.1215 21.0107 15.1215C20.43 15.1215 20.083 14.7232 20.083 14.1355C20.083 13.5481 20.4181 13.0891 20.968 13.0891C21.588 13.0891 21.7478 13.6447 21.7478 14.0028C21.7478 14.0751 21.7438 14.1274 21.736 14.1678L20.4104 14.1676ZM21.4163 13.9142C21.4203 13.6929 21.3267 13.3427 20.9406 13.3427C20.5897 13.3427 20.4415 13.6687 20.4141 13.9142H21.4163ZM23.6146 15.0088C23.525 15.0532 23.326 15.1217 23.0727 15.1217C22.5035 15.1217 22.133 14.7232 22.133 14.1275C22.133 13.5278 22.5306 13.0892 23.1467 13.0892C23.3494 13.0892 23.5288 13.1414 23.6224 13.1938L23.5446 13.4634C23.4624 13.4192 23.3338 13.3707 23.1467 13.3707C22.7138 13.3707 22.4801 13.7048 22.4801 14.1075C22.4801 14.5581 22.7608 14.8358 23.1351 14.8358C23.33 14.8358 23.4586 14.7876 23.5561 14.7433L23.6146 15.0088ZM24.5771 12.6625V13.1294H25.0682V13.3988H24.5771V14.4494C24.5771 14.6911 24.6434 14.8277 24.8344 14.8277C24.9279 14.8277 24.9826 14.8198 25.0333 14.8034L25.049 15.0734C24.9826 15.0974 24.8774 15.1215 24.7448 15.1215C24.5848 15.1215 24.4561 15.0652 24.3744 14.9728C24.2808 14.8639 24.2418 14.6911 24.2418 14.4616V13.3988H23.9492V13.1294H24.2418V12.7673L24.5772 12.6626L24.5771 12.6625ZM25.5474 13.7372C25.5474 13.5077 25.5433 13.3106 25.5318 13.1294H25.8321L25.8478 13.5156H25.8592C25.9452 13.2542 26.1555 13.0891 26.3855 13.0891C26.4207 13.0891 26.4481 13.0932 26.4793 13.0971V13.4313C26.4442 13.4231 26.4092 13.4231 26.3621 13.4231C26.1206 13.4231 25.9488 13.6082 25.9022 13.874C25.8941 13.9286 25.8902 13.9838 25.8904 14.039V15.0774H25.5474V13.7372ZM28.5882 14.0871C28.5882 14.8076 28.1007 15.1215 27.6485 15.1215C27.1415 15.1215 26.7439 14.7351 26.7439 14.1195C26.7439 13.4714 27.1611 13.0892 27.6797 13.0892C28.2216 13.0892 28.5882 13.4953 28.5882 14.0871ZM27.0947 14.1074C27.0947 14.534 27.3287 14.8561 27.664 14.8561C27.9917 14.8561 28.2371 14.5378 28.2371 14.0993C28.2371 13.7693 28.0773 13.3546 27.6717 13.3546C27.2703 13.3546 27.0947 13.7412 27.0947 14.1074ZM29.114 13.6566C29.114 13.4514 29.1098 13.2903 29.0982 13.1295H29.4024L29.4219 13.4514H29.4297C29.5233 13.2702 29.7416 13.0892 30.0535 13.0892C30.3146 13.0892 30.7203 13.2502 30.7203 13.918V15.0773H30.3772V13.9544C30.3772 13.6407 30.2641 13.3788 29.9406 13.3788C29.7182 13.3788 29.5426 13.5439 29.4805 13.741C29.4648 13.7854 29.457 13.8457 29.457 13.9062V15.0773H29.114V13.6566Z" fill="#1A1F71"/>
</svg>
